<?xml version="1.0" encoding="UTF-8"?>
<!DOCTYPE svg PUBLIC "-//W3C//DTD SVG 1.1//EN" "http://www.w3.org/Graphics/SVG/1.1/DTD/svg11.dtd">
<!-- Creator: CorelDRAW 2019 (64 Bit) -->
<svg xmlns="http://www.w3.org/2000/svg" xml:space="preserve" width="2.1867mm" height="1.64mm" version="1.1" style="shape-rendering:geometricPrecision; text-rendering:geometricPrecision; image-rendering:optimizeQuality; fill-rule:evenodd; clip-rule:evenodd"
viewBox="0 0 3.26 2.44"
 xmlns:xlink="http://www.w3.org/1999/xlink">
 <defs>
  <style type="text/css">
   <![CDATA[
    .fil0 {fill:#003399}
   ]]>
  </style>
 </defs>
 <g id="Camada_x0020_1">
  <metadata id="CorelCorpID_0Corel-Layer"/>
  <path class="fil0" d="M2.26 1.25c-0.07,0.04 -0.13,0.07 -0.21,0.11 -0.04,0.02 -0.07,0.04 -0.11,0.05 -0.04,0.02 -0.06,0.03 -0.1,0.05 -0.06,0.03 -0.15,0.09 -0.22,0.09 -0.09,0 -0.69,-0.33 -0.78,-0.38l-0.57 -0.3c-0.1,-0.06 -0.27,-0.18 -0.27,0.03l0 1c0,0.32 0.22,0.55 0.54,0.55l2.19 0c0.37,0 0.54,-0.25 0.54,-0.59l0 -0.98c0,-0.05 -0.03,-0.09 -0.07,-0.09 -0.05,-0 -0.45,0.22 -0.52,0.25 -0.07,0.03 -0.13,0.06 -0.2,0.1 -0.07,0.04 -0.14,0.07 -0.21,0.11zm-0.62 -0.03c0.04,0 1.1,-0.57 1.22,-0.63 0.03,-0.02 0.06,-0.03 0.1,-0.05 0.04,-0.02 0.06,-0.04 0.1,-0.05 0.15,-0.07 0.23,-0.09 0.09,-0.28 -0.1,-0.13 -0.24,-0.2 -0.43,-0.2l-2.19 0c-0.19,0 -0.34,0.07 -0.43,0.21 -0.14,0.19 -0.04,0.21 0.12,0.28l0.81 0.42c0.1,0.05 0.54,0.3 0.61,0.3z"/>
 </g>
</svg>
