<?xml version="1.0" encoding="UTF-8"?>
<!DOCTYPE svg PUBLIC "-//W3C//DTD SVG 1.1//EN" "http://www.w3.org/Graphics/SVG/1.1/DTD/svg11.dtd">
<!-- Creator: CorelDRAW 2019 (64 Bit) -->
<svg xmlns="http://www.w3.org/2000/svg" xml:space="preserve" width="1.295mm" height="1.6508mm" version="1.1" style="shape-rendering:geometricPrecision; text-rendering:geometricPrecision; image-rendering:optimizeQuality; fill-rule:evenodd; clip-rule:evenodd"
viewBox="0 0 7.16 9.12"
 xmlns:xlink="http://www.w3.org/1999/xlink">
 <defs>
  <style type="text/css">
   <![CDATA[
    .fil0 {fill:#003399}
   ]]>
  </style>
 </defs>
 <g id="Camada_x0020_1">
  <metadata id="CorelCorpID_0Corel-Layer"/>
  <path class="fil0" d="M1.32 3.15l0 -0.89c0,-1.25 1.01,-2.26 2.26,-2.26 1.25,0 2.26,1.01 2.26,2.26l0 0.89 0.26 0c0.59,0 1.06,0.48 1.06,1.06l0 3.85c0,0.59 -0.48,1.06 -1.06,1.06l-5.03 0c-0.59,0 -1.06,-0.48 -1.06,-1.06l0 -3.85c0,-0.59 0.48,-1.06 1.06,-1.06l0.26 0zm1 0l2.52 0 0 -0.89c0,-0.7 -0.57,-1.26 -1.26,-1.26 -0.7,0 -1.26,0.57 -1.26,1.26l0 0.89zm3.84 4.91l0 -3.85c0,-0.04 -0.03,-0.07 -0.07,-0.07l-5.03 0c-0.04,0 -0.07,0.03 -0.07,0.07l0 3.85c0,0.04 0.03,0.07 0.07,0.07l5.03 0c0.04,0 0.07,-0.03 0.07,-0.06zm-2.08 -1.59l0 0.59c0,0.28 -0.22,0.5 -0.5,0.5 -0.28,0 -0.5,-0.22 -0.5,-0.5l0 -0.59c-0.24,-0.16 -0.4,-0.44 -0.4,-0.74 0,-0.5 0.4,-0.9 0.9,-0.9 0.5,0 0.9,0.4 0.9,0.9 0,0.31 -0.16,0.58 -0.4,0.74z"/>
 </g>
</svg>
